<?xml version="1.0" encoding="UTF-8" standalone="no"?><!DOCTYPE svg PUBLIC "-//W3C//DTD SVG 1.1//EN" "http://www.w3.org/Graphics/SVG/1.1/DTD/svg11.dtd"><svg width="1920px" height="1080px" version="1.1" xmlns="http://www.w3.org/2000/svg" xmlns:xlink="http://www.w3.org/1999/xlink" xml:space="preserve" xmlns:serif="http://www.serif.com/" style="fill-rule:evenodd;clip-rule:evenodd;stroke-linejoin:round;stroke-miterlimit:2;"><g transform="matrix(0.0191948,0,0,0.0191948,1355.6,826.269)"><path d="M921.951,276.951C921.951,397.15 926.119,479.688 948,492.321C969.881,504.954 1043.44,467.294 1147.54,407.195C1043.44,467.294 974.049,512.173 974.049,537.439C974.049,562.705 1043.44,607.584 1147.54,667.683C1043.44,607.584 969.881,569.924 948,582.557C926.119,595.19 921.951,677.728 921.951,797.927C921.951,677.728 917.783,595.19 895.902,582.557C874.021,569.924 800.457,607.584 696.362,667.683C800.457,607.584 869.854,562.705 869.854,537.439C869.854,512.173 800.457,467.294 696.362,407.195C800.457,467.294 874.021,504.954 895.902,492.321C917.783,479.688 921.951,397.15 921.951,276.951Z" style="fill:#d9d4c8;"/></g><g transform="matrix(0.0191948,0,0,0.0191948,1247.3,921.391)"><path d="M921.951,276.951C921.951,397.15 926.119,479.688 948,492.321C969.881,504.954 1043.44,467.294 1147.54,407.195C1043.44,467.294 974.049,512.173 974.049,537.439C974.049,562.705 1043.44,607.584 1147.54,667.683C1043.44,607.584 969.881,569.924 948,582.557C926.119,595.19 921.951,677.728 921.951,797.927C921.951,677.728 917.783,595.19 895.902,582.557C874.021,569.924 800.457,607.584 696.362,667.683C800.457,607.584 869.854,562.705 869.854,537.439C869.854,512.173 800.457,467.294 696.362,407.195C800.457,467.294 874.021,504.954 895.902,492.321C917.783,479.688 921.951,397.15 921.951,276.951Z" style="fill:#d9d4c8;"/></g><g transform="matrix(0.0191948,0,0,0.0191948,59.0107,343.343)"><path d="M921.951,276.951C921.951,397.15 926.119,479.688 948,492.321C969.881,504.954 1043.44,467.294 1147.54,407.195C1043.44,467.294 974.049,512.173 974.049,537.439C974.049,562.705 1043.44,607.584 1147.54,667.683C1043.44,607.584 969.881,569.924 948,582.557C926.119,595.19 921.951,677.728 921.951,797.927C921.951,677.728 917.783,595.19 895.902,582.557C874.021,569.924 800.457,607.584 696.362,667.683C800.457,607.584 869.854,562.705 869.854,537.439C869.854,512.173 800.457,467.294 696.362,407.195C800.457,467.294 874.021,504.954 895.902,492.321C917.783,479.688 921.951,397.15 921.951,276.951Z" style="fill:#d9d4c8;"/></g><g transform="matrix(0.0191948,0,0,0.0191948,1804.86,675.538)"><path d="M921.951,276.951C921.951,397.15 926.119,479.688 948,492.321C969.881,504.954 1043.44,467.294 1147.54,407.195C1043.44,467.294 974.049,512.173 974.049,537.439C974.049,562.705 1043.44,607.584 1147.54,667.683C1043.44,607.584 969.881,569.924 948,582.557C926.119,595.19 921.951,677.728 921.951,797.927C921.951,677.728 917.783,595.19 895.902,582.557C874.021,569.924 800.457,607.584 696.362,667.683C800.457,607.584 869.854,562.705 869.854,537.439C869.854,512.173 800.457,467.294 696.362,407.195C800.457,467.294 874.021,504.954 895.902,492.321C917.783,479.688 921.951,397.15 921.951,276.951Z" style="fill:#d9d4c8;"/></g><g transform="matrix(0.0191948,0,0,0.0191948,1719.99,444.318)"><path d="M921.951,276.951C921.951,397.15 926.119,479.688 948,492.321C969.881,504.954 1043.44,467.294 1147.54,407.195C1043.44,467.294 974.049,512.173 974.049,537.439C974.049,562.705 1043.44,607.584 1147.54,667.683C1043.44,607.584 969.881,569.924 948,582.557C926.119,595.19 921.951,677.728 921.951,797.927C921.951,677.728 917.783,595.19 895.902,582.557C874.021,569.924 800.457,607.584 696.362,667.683C800.457,607.584 869.854,562.705 869.854,537.439C869.854,512.173 800.457,467.294 696.362,407.195C800.457,467.294 874.021,504.954 895.902,492.321C917.783,479.688 921.951,397.15 921.951,276.951Z" style="fill:#d9d4c8;"/></g><g transform="matrix(0.0191948,0,0,0.0191948,1226.82,68.2206)"><path d="M921.951,276.951C921.951,397.15 926.119,479.688 948,492.321C969.881,504.954 1043.44,467.294 1147.54,407.195C1043.44,467.294 974.049,512.173 974.049,537.439C974.049,562.705 1043.44,607.584 1147.54,667.683C1043.44,607.584 969.881,569.924 948,582.557C926.119,595.19 921.951,677.728 921.951,797.927C921.951,677.728 917.783,595.19 895.902,582.557C874.021,569.924 800.457,607.584 696.362,667.683C800.457,607.584 869.854,562.705 869.854,537.439C869.854,512.173 800.457,467.294 696.362,407.195C800.457,467.294 874.021,504.954 895.902,492.321C917.783,479.688 921.951,397.15 921.951,276.951Z" style="fill:#d9d4c8;"/></g><g transform="matrix(0.0191948,0,0,0.0191948,259.498,475.05)"><path d="M921.951,276.951C921.951,397.15 926.119,479.688 948,492.321C969.881,504.954 1043.44,467.294 1147.54,407.195C1043.44,467.294 974.049,512.173 974.049,537.439C974.049,562.705 1043.44,607.584 1147.54,667.683C1043.44,607.584 969.881,569.924 948,582.557C926.119,595.19 921.951,677.728 921.951,797.927C921.951,677.728 917.783,595.19 895.902,582.557C874.021,569.924 800.457,607.584 696.362,667.683C800.457,607.584 869.854,562.705 869.854,537.439C869.854,512.173 800.457,467.294 696.362,407.195C800.457,467.294 874.021,504.954 895.902,492.321C917.783,479.688 921.951,397.15 921.951,276.951Z" style="fill:#d9d4c8;"/></g><g transform="matrix(0.040309,0,0,0.040309,1310.17,637.983)"><path d="M921.951,276.951C921.951,397.15 926.119,479.688 948,492.321C969.881,504.954 1043.44,467.294 1147.54,407.195C1043.44,467.294 974.049,512.173 974.049,537.439C974.049,562.705 1043.44,607.584 1147.54,667.683C1043.44,607.584 969.881,569.924 948,582.557C926.119,595.19 921.951,677.728 921.951,797.927C921.951,677.728 917.783,595.19 895.902,582.557C874.021,569.924 800.457,607.584 696.362,667.683C800.457,607.584 869.854,562.705 869.854,537.439C869.854,512.173 800.457,467.294 696.362,407.195C800.457,467.294 874.021,504.954 895.902,492.321C917.783,479.688 921.951,397.15 921.951,276.951Z" style="fill:#65a43d;"/></g><g transform="matrix(0.0191948,0,0,0.0191948,645.84,886.269)"><path d="M921.951,276.951C921.951,397.15 926.119,479.688 948,492.321C969.881,504.954 1043.44,467.294 1147.54,407.195C1043.44,467.294 974.049,512.173 974.049,537.439C974.049,562.705 1043.44,607.584 1147.54,667.683C1043.44,607.584 969.881,569.924 948,582.557C926.119,595.19 921.951,677.728 921.951,797.927C921.951,677.728 917.783,595.19 895.902,582.557C874.021,569.924 800.457,607.584 696.362,667.683C800.457,607.584 869.854,562.705 869.854,537.439C869.854,512.173 800.457,467.294 696.362,407.195C800.457,467.294 874.021,504.954 895.902,492.321C917.783,479.688 921.951,397.15 921.951,276.951Z" style="fill:#d9d4c8;"/></g><g transform="matrix(0.0326311,0,0,0.0326311,647.196,683.524)"><path d="M921.951,276.951C921.951,397.15 926.119,479.688 948,492.321C969.881,504.954 1043.44,467.294 1147.54,407.195C1043.44,467.294 974.049,512.173 974.049,537.439C974.049,562.705 1043.44,607.584 1147.54,667.683C1043.44,607.584 969.881,569.924 948,582.557C926.119,595.19 921.951,677.728 921.951,797.927C921.951,677.728 917.783,595.19 895.902,582.557C874.021,569.924 800.457,607.584 696.362,667.683C800.457,607.584 869.854,562.705 869.854,537.439C869.854,512.173 800.457,467.294 696.362,407.195C800.457,467.294 874.021,504.954 895.902,492.321C917.783,479.688 921.951,397.15 921.951,276.951Z" style="fill:#f7e94a;"/></g><g transform="matrix(0.0268727,0,0,0.0268727,1287.83,125.728)"><path d="M921.951,276.951C921.951,397.15 926.119,479.688 948,492.321C969.881,504.954 1043.44,467.294 1147.54,407.195C1043.44,467.294 974.049,512.173 974.049,537.439C974.049,562.705 1043.44,607.584 1147.54,667.683C1043.44,607.584 969.881,569.924 948,582.557C926.119,595.19 921.951,677.728 921.951,797.927C921.951,677.728 917.783,595.19 895.902,582.557C874.021,569.924 800.457,607.584 696.362,667.683C800.457,607.584 869.854,562.705 869.854,537.439C869.854,512.173 800.457,467.294 696.362,407.195C800.457,467.294 874.021,504.954 895.902,492.321C917.783,479.688 921.951,397.15 921.951,276.951Z" style="fill:#d31e25;"/></g><g transform="matrix(0.0249532,0,0,0.0249532,1606.42,76.6258)"><path d="M921.951,276.951C921.951,397.15 926.119,479.688 948,492.321C969.881,504.954 1043.44,467.294 1147.54,407.195C1043.44,467.294 974.049,512.173 974.049,537.439C974.049,562.705 1043.44,607.584 1147.54,667.683C1043.44,607.584 969.881,569.924 948,582.557C926.119,595.19 921.951,677.728 921.951,797.927C921.951,677.728 917.783,595.19 895.902,582.557C874.021,569.924 800.457,607.584 696.362,667.683C800.457,607.584 869.854,562.705 869.854,537.439C869.854,512.173 800.457,467.294 696.362,407.195C800.457,467.294 874.021,504.954 895.902,492.321C917.783,479.688 921.951,397.15 921.951,276.951Z" style="fill:#b8a073;"/></g><g transform="matrix(0.0287921,0,0,0.0287921,1600.83,574.709)"><path d="M921.951,276.951C921.951,397.15 926.119,479.688 948,492.321C969.881,504.954 1043.44,467.294 1147.54,407.195C1043.44,467.294 974.049,512.173 974.049,537.439C974.049,562.705 1043.44,607.584 1147.54,667.683C1043.44,607.584 969.881,569.924 948,582.557C926.119,595.19 921.951,677.728 921.951,797.927C921.951,677.728 917.783,595.19 895.902,582.557C874.021,569.924 800.457,607.584 696.362,667.683C800.457,607.584 869.854,562.705 869.854,537.439C869.854,512.173 800.457,467.294 696.362,407.195C800.457,467.294 874.021,504.954 895.902,492.321C917.783,479.688 921.951,397.15 921.951,276.951Z" style="fill:#dd4223;"/></g><g transform="matrix(0.0268727,0,0,0.0268727,96.3711,695.484)"><path d="M921.951,276.951C921.951,397.15 926.119,479.688 948,492.321C969.881,504.954 1043.44,467.294 1147.54,407.195C1043.44,467.294 974.049,512.173 974.049,537.439C974.049,562.705 1043.44,607.584 1147.54,667.683C1043.44,607.584 969.881,569.924 948,582.557C926.119,595.19 921.951,677.728 921.951,797.927C921.951,677.728 917.783,595.19 895.902,582.557C874.021,569.924 800.457,607.584 696.362,667.683C800.457,607.584 869.854,562.705 869.854,537.439C869.854,512.173 800.457,467.294 696.362,407.195C800.457,467.294 874.021,504.954 895.902,492.321C917.783,479.688 921.951,397.15 921.951,276.951Z" style="fill:#64539b;"/></g><g transform="matrix(0.0268727,0,0,0.0268727,1821.74,281.338)"><path d="M921.951,276.951C921.951,397.15 926.119,479.688 948,492.321C969.881,504.954 1043.44,467.294 1147.54,407.195C1043.44,467.294 974.049,512.173 974.049,537.439C974.049,562.705 1043.44,607.584 1147.54,667.683C1043.44,607.584 969.881,569.924 948,582.557C926.119,595.19 921.951,677.728 921.951,797.927C921.951,677.728 917.783,595.19 895.902,582.557C874.021,569.924 800.457,607.584 696.362,667.683C800.457,607.584 869.854,562.705 869.854,537.439C869.854,512.173 800.457,467.294 696.362,407.195C800.457,467.294 874.021,504.954 895.902,492.321C917.783,479.688 921.951,397.15 921.951,276.951Z" style="fill:#64539b;"/></g><g transform="matrix(0.0191948,0,0,0.0191948,489.986,662.855)"><path d="M921.951,276.951C921.951,397.15 926.119,479.688 948,492.321C969.881,504.954 1043.44,467.294 1147.54,407.195C1043.44,467.294 974.049,512.173 974.049,537.439C974.049,562.705 1043.44,607.584 1147.54,667.683C1043.44,607.584 969.881,569.924 948,582.557C926.119,595.19 921.951,677.728 921.951,797.927C921.951,677.728 917.783,595.19 895.902,582.557C874.021,569.924 800.457,607.584 696.362,667.683C800.457,607.584 869.854,562.705 869.854,537.439C869.854,512.173 800.457,467.294 696.362,407.195C800.457,467.294 874.021,504.954 895.902,492.321C917.783,479.688 921.951,397.15 921.951,276.951Z" style="fill:#81b920;"/></g><g transform="matrix(0.0191948,0,0,0.0191948,1578.77,438.952)"><path d="M921.951,276.951C921.951,397.15 926.119,479.688 948,492.321C969.881,504.954 1043.44,467.294 1147.54,407.195C1043.44,467.294 974.049,512.173 974.049,537.439C974.049,562.705 1043.44,607.584 1147.54,667.683C1043.44,607.584 969.881,569.924 948,582.557C926.119,595.19 921.951,677.728 921.951,797.927C921.951,677.728 917.783,595.19 895.902,582.557C874.021,569.924 800.457,607.584 696.362,667.683C800.457,607.584 869.854,562.705 869.854,537.439C869.854,512.173 800.457,467.294 696.362,407.195C800.457,467.294 874.021,504.954 895.902,492.321C917.783,479.688 921.951,397.15 921.951,276.951Z" style="fill:#81b920;"/></g><g transform="matrix(0.0191948,0,0,0.0191948,315.84,157.977)"><path d="M921.951,276.951C921.951,397.15 926.119,479.688 948,492.321C969.881,504.954 1043.44,467.294 1147.54,407.195C1043.44,467.294 974.049,512.173 974.049,537.439C974.049,562.705 1043.44,607.584 1147.54,667.683C1043.44,607.584 969.881,569.924 948,582.557C926.119,595.19 921.951,677.728 921.951,797.927C921.951,677.728 917.783,595.19 895.902,582.557C874.021,569.924 800.457,607.584 696.362,667.683C800.457,607.584 869.854,562.705 869.854,537.439C869.854,512.173 800.457,467.294 696.362,407.195C800.457,467.294 874.021,504.954 895.902,492.321C917.783,479.688 921.951,397.15 921.951,276.951Z" style="fill:#81b920;"/></g><g transform="matrix(0.0191948,0,0,0.0191948,1212.91,361.391)"><path d="M921.951,276.951C921.951,397.15 926.119,479.688 948,492.321C969.881,504.954 1043.44,467.294 1147.54,407.195C1043.44,467.294 974.049,512.173 974.049,537.439C974.049,562.705 1043.44,607.584 1147.54,667.683C1043.44,607.584 969.881,569.924 948,582.557C926.119,595.19 921.951,677.728 921.951,797.927C921.951,677.728 917.783,595.19 895.902,582.557C874.021,569.924 800.457,607.584 696.362,667.683C800.457,607.584 869.854,562.705 869.854,537.439C869.854,512.173 800.457,467.294 696.362,407.195C800.457,467.294 874.021,504.954 895.902,492.321C917.783,479.688 921.951,397.15 921.951,276.951Z" style="fill:#71b1bc;"/></g><g transform="matrix(0.0191948,0,0,0.0191948,650.962,182.855)"><path d="M921.951,276.951C921.951,397.15 926.119,479.688 948,492.321C969.881,504.954 1043.44,467.294 1147.54,407.195C1043.44,467.294 974.049,512.173 974.049,537.439C974.049,562.705 1043.44,607.584 1147.54,667.683C1043.44,607.584 969.881,569.924 948,582.557C926.119,595.19 921.951,677.728 921.951,797.927C921.951,677.728 917.783,595.19 895.902,582.557C874.021,569.924 800.457,607.584 696.362,667.683C800.457,607.584 869.854,562.705 869.854,537.439C869.854,512.173 800.457,467.294 696.362,407.195C800.457,467.294 874.021,504.954 895.902,492.321C917.783,479.688 921.951,397.15 921.951,276.951Z" style="fill:#d31e25;"/></g><g transform="matrix(0.0326311,0,0,0.0326311,845.489,983.524)"><path d="M921.951,276.951C921.951,397.15 926.119,479.688 948,492.321C969.881,504.954 1043.44,467.294 1147.54,407.195C1043.44,467.294 974.049,512.173 974.049,537.439C974.049,562.705 1043.44,607.584 1147.54,667.683C1043.44,607.584 969.881,569.924 948,582.557C926.119,595.19 921.951,677.728 921.951,797.927C921.951,677.728 917.783,595.19 895.902,582.557C874.021,569.924 800.457,607.584 696.362,667.683C800.457,607.584 869.854,562.705 869.854,537.439C869.854,512.173 800.457,467.294 696.362,407.195C800.457,467.294 874.021,504.954 895.902,492.321C917.783,479.688 921.951,397.15 921.951,276.951Z" style="fill:#9eaea2;"/></g><g transform="matrix(0.0307116,0,0,0.0307116,110.051,31.1285)"><path d="M921.951,276.951C921.951,397.15 926.119,479.688 948,492.321C969.881,504.954 1043.44,467.294 1147.54,407.195C1043.44,467.294 974.049,512.173 974.049,537.439C974.049,562.705 1043.44,607.584 1147.54,667.683C1043.44,607.584 969.881,569.924 948,582.557C926.119,595.19 921.951,677.728 921.951,797.927C921.951,677.728 917.783,595.19 895.902,582.557C874.021,569.924 800.457,607.584 696.362,667.683C800.457,607.584 869.854,562.705 869.854,537.439C869.854,512.173 800.457,467.294 696.362,407.195C800.457,467.294 874.021,504.954 895.902,492.321C917.783,479.688 921.951,397.15 921.951,276.951Z" style="fill:#d4c534;"/></g><g transform="matrix(0.0307116,0,0,0.0307116,1333.47,363.324)"><path d="M921.951,276.951C921.951,397.15 926.119,479.688 948,492.321C969.881,504.954 1043.44,467.294 1147.54,407.195C1043.44,467.294 974.049,512.173 974.049,537.439C974.049,562.705 1043.44,607.584 1147.54,667.683C1043.44,607.584 969.881,569.924 948,582.557C926.119,595.19 921.951,677.728 921.951,797.927C921.951,677.728 917.783,595.19 895.902,582.557C874.021,569.924 800.457,607.584 696.362,667.683C800.457,607.584 869.854,562.705 869.854,537.439C869.854,512.173 800.457,467.294 696.362,407.195C800.457,467.294 874.021,504.954 895.902,492.321C917.783,479.688 921.951,397.15 921.951,276.951Z" style="fill:#e9a4ad;"/></g><g transform="matrix(0.03647,0,0,0.03647,1514.66,865.387)"><path d="M921.951,276.951C921.951,397.15 926.119,479.688 948,492.321C969.881,504.954 1043.44,467.294 1147.54,407.195C1043.44,467.294 974.049,512.173 974.049,537.439C974.049,562.705 1043.44,607.584 1147.54,667.683C1043.44,607.584 969.881,569.924 948,582.557C926.119,595.19 921.951,677.728 921.951,797.927C921.951,677.728 917.783,595.19 895.902,582.557C874.021,569.924 800.457,607.584 696.362,667.683C800.457,607.584 869.854,562.705 869.854,537.439C869.854,512.173 800.457,467.294 696.362,407.195C800.457,467.294 874.021,504.954 895.902,492.321C917.783,479.688 921.951,397.15 921.951,276.951Z" style="fill:#23aeb7;"/></g><g transform="matrix(0.03647,0,0,0.03647,537.096,423.436)"><path d="M921.951,276.951C921.951,397.15 926.119,479.688 948,492.321C969.881,504.954 1043.44,467.294 1147.54,407.195C1043.44,467.294 974.049,512.173 974.049,537.439C974.049,562.705 1043.44,607.584 1147.54,667.683C1043.44,607.584 969.881,569.924 948,582.557C926.119,595.19 921.951,677.728 921.951,797.927C921.951,677.728 917.783,595.19 895.902,582.557C874.021,569.924 800.457,607.584 696.362,667.683C800.457,607.584 869.854,562.705 869.854,537.439C869.854,512.173 800.457,467.294 696.362,407.195C800.457,467.294 874.021,504.954 895.902,492.321C917.783,479.688 921.951,397.15 921.951,276.951Z" style="fill:#bccf11;"/></g><g transform="matrix(0.0268727,0,0,0.0268727,236.859,314.875)"><path d="M921.951,276.951C921.951,397.15 926.119,479.688 948,492.321C969.881,504.954 1043.44,467.294 1147.54,407.195C1043.44,467.294 974.049,512.173 974.049,537.439C974.049,562.705 1043.44,607.584 1147.54,667.683C1043.44,607.584 969.881,569.924 948,582.557C926.119,595.19 921.951,677.728 921.951,797.927C921.951,677.728 917.783,595.19 895.902,582.557C874.021,569.924 800.457,607.584 696.362,667.683C800.457,607.584 869.854,562.705 869.854,537.439C869.854,512.173 800.457,467.294 696.362,407.195C800.457,467.294 874.021,504.954 895.902,492.321C917.783,479.688 921.951,397.15 921.951,276.951Z" style="fill:#03ab6f;"/></g><g transform="matrix(0.0268727,0,0,0.0268727,449.054,734.875)"><path d="M921.951,276.951C921.951,397.15 926.119,479.688 948,492.321C969.881,504.954 1043.44,467.294 1147.54,407.195C1043.44,467.294 974.049,512.173 974.049,537.439C974.049,562.705 1043.44,607.584 1147.54,667.683C1043.44,607.584 969.881,569.924 948,582.557C926.119,595.19 921.951,677.728 921.951,797.927C921.951,677.728 917.783,595.19 895.902,582.557C874.021,569.924 800.457,607.584 696.362,667.683C800.457,607.584 869.854,562.705 869.854,537.439C869.854,512.173 800.457,467.294 696.362,407.195C800.457,467.294 874.021,504.954 895.902,492.321C917.783,479.688 921.951,397.15 921.951,276.951Z" style="fill:#cca489;"/></g><g transform="matrix(0.03647,0,0,0.03647,916.852,32.8264)"><path d="M921.951,276.951C921.951,397.15 926.119,479.688 948,492.321C969.881,504.954 1043.44,467.294 1147.54,407.195C1043.44,467.294 974.049,512.173 974.049,537.439C974.049,562.705 1043.44,607.584 1147.54,667.683C1043.44,607.584 969.881,569.924 948,582.557C926.119,595.19 921.951,677.728 921.951,797.927C921.951,677.728 917.783,595.19 895.902,582.557C874.021,569.924 800.457,607.584 696.362,667.683C800.457,607.584 869.854,562.705 869.854,537.439C869.854,512.173 800.457,467.294 696.362,407.195C800.457,467.294 874.021,504.954 895.902,492.321C917.783,479.688 921.951,397.15 921.951,276.951Z" style="fill:#8c9a97;"/></g><g transform="matrix(0.03647,0,0,0.03647,268.559,919.656)"><path d="M921.951,276.951C921.951,397.15 926.119,479.688 948,492.321C969.881,504.954 1043.44,467.294 1147.54,407.195C1043.44,467.294 974.049,512.173 974.049,537.439C974.049,562.705 1043.44,607.584 1147.54,667.683C1043.44,607.584 969.881,569.924 948,582.557C926.119,595.19 921.951,677.728 921.951,797.927C921.951,677.728 917.783,595.19 895.902,582.557C874.021,569.924 800.457,607.584 696.362,667.683C800.457,607.584 869.854,562.705 869.854,537.439C869.854,512.173 800.457,467.294 696.362,407.195C800.457,467.294 874.021,504.954 895.902,492.321C917.783,479.688 921.951,397.15 921.951,276.951Z" style="fill:#17abdd;"/></g><g transform="matrix(0.0383895,0,0,0.0383895,1464.36,247.295)"><path d="M921.951,276.951C921.951,397.15 926.119,479.688 948,492.321C969.881,504.954 1043.44,467.294 1147.54,407.195C1043.44,467.294 974.049,512.173 974.049,537.439C974.049,562.705 1043.44,607.584 1147.54,667.683C1043.44,607.584 969.881,569.924 948,582.557C926.119,595.19 921.951,677.728 921.951,797.927C921.951,677.728 917.783,595.19 895.902,582.557C874.021,569.924 800.457,607.584 696.362,667.683C800.457,607.584 869.854,562.705 869.854,537.439C869.854,512.173 800.457,467.294 696.362,407.195C800.457,467.294 874.021,504.954 895.902,492.321C917.783,479.688 921.951,397.15 921.951,276.951Z" style="fill:#dd4425;"/></g><g transform="matrix(0.0345506,0,0,0.0345506,1788.12,989.578)"><path d="M921.951,276.951C921.951,397.15 926.119,479.688 948,492.321C969.881,504.954 1043.44,467.294 1147.54,407.195C1043.44,467.294 974.049,512.173 974.049,537.439C974.049,562.705 1043.44,607.584 1147.54,667.683C1043.44,607.584 969.881,569.924 948,582.557C926.119,595.19 921.951,677.728 921.951,797.927C921.951,677.728 917.783,595.19 895.902,582.557C874.021,569.924 800.457,607.584 696.362,667.683C800.457,607.584 869.854,562.705 869.854,537.439C869.854,512.173 800.457,467.294 696.362,407.195C800.457,467.294 874.021,504.954 895.902,492.321C917.783,479.688 921.951,397.15 921.951,276.951Z" style="fill:#44d62c;"/></g><g transform="matrix(0.0345506,0,0,0.0345506,1087.88,119.212)"><path d="M921.951,276.951C921.951,397.15 926.119,479.688 948,492.321C969.881,504.954 1043.44,467.294 1147.54,407.195C1043.44,467.294 974.049,512.173 974.049,537.439C974.049,562.705 1043.44,607.584 1147.54,667.683C1043.44,607.584 969.881,569.924 948,582.557C926.119,595.19 921.951,677.728 921.951,797.927C921.951,677.728 917.783,595.19 895.902,582.557C874.021,569.924 800.457,607.584 696.362,667.683C800.457,607.584 869.854,562.705 869.854,537.439C869.854,512.173 800.457,467.294 696.362,407.195C800.457,467.294 874.021,504.954 895.902,492.321C917.783,479.688 921.951,397.15 921.951,276.951Z" style="fill:#44d62c;"/></g><g transform="matrix(0.0211142,0,0,0.0211142,1234.33,458.299)"><path d="M921.951,276.951C921.951,397.15 926.119,479.688 948,492.321C969.881,504.954 1043.44,467.294 1147.54,407.195C1043.44,467.294 974.049,512.173 974.049,537.439C974.049,562.705 1043.44,607.584 1147.54,667.683C1043.44,607.584 969.881,569.924 948,582.557C926.119,595.19 921.951,677.728 921.951,797.927C921.951,677.728 917.783,595.19 895.902,582.557C874.021,569.924 800.457,607.584 696.362,667.683C800.457,607.584 869.854,562.705 869.854,537.439C869.854,512.173 800.457,467.294 696.362,407.195C800.457,467.294 874.021,504.954 895.902,492.321C917.783,479.688 921.951,397.15 921.951,276.951Z" style="fill:#ff3eb5;"/></g><g transform="matrix(0.0211142,0,0,0.0211142,564.082,224.152)"><path d="M921.951,276.951C921.951,397.15 926.119,479.688 948,492.321C969.881,504.954 1043.44,467.294 1147.54,407.195C1043.44,467.294 974.049,512.173 974.049,537.439C974.049,562.705 1043.44,607.584 1147.54,667.683C1043.44,607.584 969.881,569.924 948,582.557C926.119,595.19 921.951,677.728 921.951,797.927C921.951,677.728 917.783,595.19 895.902,582.557C874.021,569.924 800.457,607.584 696.362,667.683C800.457,607.584 869.854,562.705 869.854,537.439C869.854,512.173 800.457,467.294 696.362,407.195C800.457,467.294 874.021,504.954 895.902,492.321C917.783,479.688 921.951,397.15 921.951,276.951Z" style="fill:#ff3eb5;"/></g><g transform="matrix(0.0211142,0,0,0.0211142,94.3264,993.908)"><path d="M921.951,276.951C921.951,397.15 926.119,479.688 948,492.321C969.881,504.954 1043.44,467.294 1147.54,407.195C1043.44,467.294 974.049,512.173 974.049,537.439C974.049,562.705 1043.44,607.584 1147.54,667.683C1043.44,607.584 969.881,569.924 948,582.557C926.119,595.19 921.951,677.728 921.951,797.927C921.951,677.728 917.783,595.19 895.902,582.557C874.021,569.924 800.457,607.584 696.362,667.683C800.457,607.584 869.854,562.705 869.854,537.439C869.854,512.173 800.457,467.294 696.362,407.195C800.457,467.294 874.021,504.954 895.902,492.321C917.783,479.688 921.951,397.15 921.951,276.951Z" style="fill:#ff3eb5;"/></g><g transform="matrix(0.170833,0,0,0.170833,723.695,310.271)"><circle cx="342.439" cy="256.829" r="5.854" style="fill:#fff;"/></g><g transform="matrix(0.341667,0,0,0.341667,215.927,630.787)"><circle cx="342.439" cy="256.829" r="5.854" style="fill:#fff;"/></g><g transform="matrix(0.25625,0,0,0.25625,417.86,67.3582)"><circle cx="342.439" cy="256.829" r="5.854" style="fill:#fff;"/></g><g transform="matrix(0.170833,0,0,0.170833,104.671,158.076)"><circle cx="342.439" cy="256.829" r="5.854" style="fill:#fff;"/></g><g transform="matrix(0.341667,0,0,0.341667,657.878,471.274)"><circle cx="342.439" cy="256.829" r="5.854" style="fill:#fff;"/></g><g transform="matrix(0.341667,0,0,0.341667,834.951,122.982)"><circle cx="342.439" cy="256.829" r="5.854" style="fill:#fff;"/></g><g transform="matrix(0.25625,0,0,0.25625,1007.62,275.163)"><circle cx="342.439" cy="256.829" r="5.854" style="fill:#fff;"/></g><g transform="matrix(0.170833,0,0,0.170833,1041.26,550.271)"><circle cx="342.439" cy="256.829" r="5.854" style="fill:#fff;"/></g><g transform="matrix(0.170833,0,0,0.170833,452.963,895.637)"><circle cx="342.439" cy="256.829" r="5.854" style="fill:#fff;"/></g><g transform="matrix(0.170833,0,0,0.170833,88.5732,475.637)"><circle cx="342.439" cy="256.829" r="5.854" style="fill:#fff;"/></g><g transform="matrix(0.170833,0,0,0.170833,1465.65,98.0762)"><circle cx="342.439" cy="256.829" r="5.854" style="fill:#fff;"/></g><g transform="matrix(0.25625,0,0,0.25625,1148.1,670.285)"><circle cx="342.439" cy="256.829" r="5.854" style="fill:#fff;"/></g><g transform="matrix(0.25625,0,0,0.25625,1405.66,477.114)"><circle cx="342.439" cy="256.829" r="5.854" style="fill:#fff;"/></g><g transform="matrix(0.170833,0,0,0.170833,382.72,329.296)"><circle cx="342.439" cy="256.829" r="5.854" style="fill:#fff;"/></g><g transform="matrix(0.170833,0,0,0.170833,1401.26,955.637)"><circle cx="342.439" cy="256.829" r="5.854" style="fill:#fff;"/></g><g transform="matrix(0.25625,0,0,0.25625,381.274,488.822)"><circle cx="342.439" cy="256.829" r="5.854" style="fill:#fff;"/></g><g transform="matrix(0.341667,0,0,0.341667,937.39,737.616)"><circle cx="342.439" cy="256.829" r="5.854" style="fill:#fff;"/></g><g transform="matrix(0.25625,0,0,0.25625,1635.42,196.139)"><circle cx="342.439" cy="256.829" r="5.854" style="fill:#fff;"/></g><g transform="matrix(0.170833,0,0,0.170833,1538.82,702.466)"><circle cx="342.439" cy="256.829" r="5.854" style="fill:#fff;"/></g><g transform="matrix(0.25625,0,0,0.25625,5.17683,829.797)"><circle cx="342.439" cy="256.829" r="5.854" style="fill:#fff;"/></g><g transform="matrix(0.170833,0,0,0.170833,865.646,417.101)"><circle cx="342.439" cy="256.829" r="5.854" style="fill:#fff;"/></g><g transform="matrix(0.170833,0,0,0.170833,1724.67,532.71)"><circle cx="342.439" cy="256.829" r="5.854" style="fill:#fff;"/></g><g transform="matrix(0.170833,0,0,0.170833,1718.82,826.857)"><circle cx="342.439" cy="256.829" r="5.854" style="fill:#fff;"/></g><g transform="matrix(0.170833,0,0,0.170833,1789.06,84.9055)"><circle cx="342.439" cy="256.829" r="5.854" style="fill:#fff;"/></g><g transform="matrix(0.170833,0,0,0.170833,818.817,679.052)"><circle cx="342.439" cy="256.829" r="5.854" style="fill:#fff;"/></g></svg>