<?xml version="1.0" encoding="UTF-8" standalone="no"?>
<!DOCTYPE svg PUBLIC "-//W3C//DTD SVG 1.1//EN" "http://www.w3.org/Graphics/SVG/1.1/DTD/svg11.dtd">
<svg width="100%" height="100%" viewBox="0 0 600 800" version="1.1" xmlns="http://www.w3.org/2000/svg" xmlns:xlink="http://www.w3.org/1999/xlink" xml:space="preserve" xmlns:serif="http://www.serif.com/" style="fill-rule:evenodd;clip-rule:evenodd;stroke-linecap:round;stroke-miterlimit:1.5;">
    <g id="Layer1">
        <circle cx="85" cy="539.875" r="15" style="fill:rgb(123,94,198);stroke:rgb(185,163,228);stroke-width:1.11px;"/>
        <path d="M78.86,596.581C79.541,598.623 81.452,600 83.604,600C91.204,600 108.796,600 116.396,600C118.548,600 120.459,598.623 121.14,596.581C123.879,588.364 130.95,567.151 135.613,553.162C136.629,550.113 136.118,546.761 134.238,544.153C132.359,541.545 129.34,540 126.126,540C111.478,540 88.522,540 73.874,540C70.66,540 67.641,541.545 65.762,544.153C63.882,546.761 63.371,550.113 64.387,553.162C69.05,567.151 76.121,588.364 78.86,596.581Z" style="fill:white;stroke:white;stroke-width:1.11px;"/>
        <circle cx="95" cy="460" r="20" style="fill:rgb(254,84,66);stroke:rgb(254,84,66);stroke-width:1.11px;"/>
        <circle cx="100" cy="500" r="20" style="fill:rgb(255,116,119);stroke:rgb(255,116,119);stroke-width:1.11px;"/>
        <circle cx="75" cy="480" r="25" style="fill:rgb(255,170,82);stroke:rgb(255,170,82);stroke-width:1.11px;"/>
        <circle cx="85.125" cy="524.875" r="10.125" style="fill:rgb(0,156,205);stroke:rgb(0,205,232);stroke-width:1.11px;"/>
        <circle cx="115" cy="520" r="15" style="fill:rgb(59,210,61);stroke:rgb(132,234,134);stroke-width:1.11px;"/>
        <circle cx="118.125" cy="488.125" r="8.125" style="fill:rgb(123,94,198);stroke:rgb(185,163,228);stroke-width:1.11px;"/>
        <circle cx="117.437" cy="542.437" r="16.313" style="fill:rgb(243,218,154);stroke:rgb(250,238,204);stroke-width:1.11px;"/>
        <circle cx="125" cy="510" r="10" style="fill:rgb(247,140,30);stroke:rgb(251,196,96);stroke-width:1.11px;"/>
        <path d="M400,600L400,200" style="fill:none;stroke:white;stroke-width:1.11px;stroke-linecap:butt;"/>
        <path d="M400,600L200,600L350,625L400,600Z" style="fill:white;stroke:white;stroke-width:1.11px;stroke-linecap:butt;"/>
    </g>
    <circle cx="375" cy="410" r="10" style="fill:white;stroke:white;stroke-width:1.11px;"/>
</svg>
